<svg width="192" height="192" viewBox="0 0 192 192" fill="none" xmlns="http://www.w3.org/2000/svg">
<rect width="192" height="192" fill="#FEFEFE"/>
<path d="M139.319 66.622C147.894 83.5847 154.399 103.265 147.875 121.118C140.835 140.385 124.432 148.685 96 148.685C68.4446 148.685 52.1878 140.889 44.8027 122.869C37.1388 104.169 44.709 83.1167 54.1628 65.255C80.5119 15.4716 62.1674 62.7261 84.5879 77.025C91.3592 81.3435 100.739 81.3163 107.216 76.5667C127.417 61.7509 113.767 16.0793 139.319 66.622Z" fill="black"/>
<circle cx="77" cy="105.685" r="8" fill="#FEFEFE"/>
<circle cx="102" cy="107.685" r="8" fill="#FEFEFE"/>
<path d="M96 123.649C96 128.067 92.4183 131.649 88 131.649C83.5817 131.649 80 128.067 80 123.649C80 119.23 83.5817 123.649 88 123.649C92.4183 123.649 96 119.23 96 123.649Z" fill="#FEFEFE"/>
</svg>
